<svg width="221" height="36" viewBox="0 0 221 36" fill="none" xmlns="http://www.w3.org/2000/svg">
    <g clip-path="url(#clip0_3460_6204)">
        <path d="M28.5494 0H7.51972C3.36688 0 0 3.36042 0 7.5053V28.4947C0 32.6396 3.36688 36 7.51972 36H28.5494C32.7023 36 36.0692 32.6396 36.0692 28.4947V7.5053C36.0692 3.36042 32.7023 0 28.5494 0Z" fill="url(#paint0_linear_3460_6204)" />
        <path d="M21.9984 4.63818H14.0708C11.5896 4.63818 9.57812 6.64578 9.57812 9.12228V10.6233C9.57812 13.0998 11.5896 15.1074 14.0708 15.1074H21.9984C24.4797 15.1074 26.4911 13.0998 26.4911 10.6233V9.12228C26.4911 6.64578 24.4797 4.63818 21.9984 4.63818Z" fill="url(#paint1_linear_3460_6204)" />
        <path d="M14.3664 11.9815C15.5865 11.9815 16.5756 10.9944 16.5756 9.7766C16.5756 8.55884 15.5865 7.57166 14.3664 7.57166C13.1463 7.57166 12.1572 8.55884 12.1572 9.7766C12.1572 10.9944 13.1463 11.9815 14.3664 11.9815Z" fill="#101651" />
        <path d="M23.9095 8.71932L22.4884 7.29883L21.3137 8.47127L20.139 7.29883L18.7158 8.71932L19.8905 9.89176L18.7477 11.0324L20.1688 12.4529L21.3137 11.3101L22.4566 12.4529L23.8798 11.0324L22.7348 9.89176L23.9095 8.71932Z" fill="#101651" />
        <path d="M18.8601 31.3619H17.4709H14.6011V29.1845V25.0735H13.0037V19.7901H11.863V31.3619H8.45996V19.7901V17.1484H11.863H13.0037H15.8756V19.7901V22.9237H17.4709V29.1845H18.8601V31.3619Z" fill="url(#paint2_radial_3460_6204)" />
        <path d="M18.5967 31.3619H21.4686V29.1845V25.0735H23.066V19.7901H24.2046V31.3619H27.6097V19.7901V17.1484H24.2046H23.066H20.1941V19.7901V22.9237H18.5967V29.1845" fill="url(#paint3_radial_3460_6204)" />
        <path d="M44.5615 26.6814V12.0566H48.1281V26.6814H44.5615ZM47.9093 19.369L54.0546 12.0566H58.3625L52.1067 19.369H47.9093ZM54.3308 26.6814L47.9093 19.369H52.1067L58.6918 26.6814H54.3287H54.3308Z" fill="#101651" />
        <path d="M60.9023 26.6814V12.0566H64.4137V21.504L69.737 12.0566H73.193V26.6814H69.6817V17.48L64.5241 26.6814H60.9023Z" fill="#101651" />
        <path d="M82.8515 27.1189C81.8637 27.1189 80.8929 26.9366 79.9434 26.5698C78.9918 26.2052 78.1506 25.5924 77.4199 24.7359C76.7783 24.0235 76.2898 23.0928 75.952 21.9415C75.6143 20.7924 75.4443 19.4949 75.4443 18.0532C75.4443 16.2829 75.6143 14.7988 75.952 13.603C76.2898 12.4073 76.8293 11.4129 77.5707 10.6179C78.312 9.82282 79.2764 9.17194 80.466 8.65887C81.0693 8.40233 81.5366 8.14367 81.8658 7.87865C82.1951 7.61364 82.4288 7.30834 82.5647 6.96063C82.7028 6.61505 82.7708 6.19314 82.7708 5.70127L85.8976 5.67371C85.8976 6.87795 85.6597 7.89137 85.1839 8.71399C84.708 9.53448 83.8838 10.2193 82.7155 10.7684C82.074 11.0801 81.4898 11.3854 80.9588 11.6864C80.4277 11.9875 79.9795 12.3628 79.6142 12.8101C79.2488 13.2575 78.9833 13.832 78.8176 14.5359C78.654 15.2398 78.5988 16.1472 78.654 17.2603L77.9127 17.1776C78.1867 16.3741 78.5754 15.685 79.0789 15.1105C79.5823 14.5359 80.1898 14.0928 80.9036 13.7832C81.6173 13.4737 82.4033 13.3168 83.2636 13.3168C84.6528 13.3168 85.87 13.6052 86.913 14.1797C87.956 14.7543 88.7653 15.5578 89.3409 16.5903C89.9166 17.6228 90.2055 18.8122 90.2055 20.1649C90.2055 21.5896 89.8996 22.8214 89.2857 23.8624C88.6718 24.9034 87.8136 25.7069 86.7069 26.273C85.6002 26.8391 84.3151 27.1232 82.8515 27.1232V27.1189ZM82.9067 24.2695C83.6204 24.2695 84.2556 24.0956 84.8142 23.75C85.3708 23.4044 85.8063 22.9189 86.1164 22.2999C86.4265 21.6787 86.5837 20.9663 86.5837 20.1628C86.5837 19.3592 86.4329 18.685 86.1313 18.0808C85.8296 17.4787 85.4133 17.008 84.8822 16.6709C84.3512 16.3338 83.7394 16.1642 83.0448 16.1642C82.2949 16.1642 81.6322 16.3338 81.0565 16.6709C80.4808 17.008 80.0284 17.4787 79.6991 18.0808C79.3699 18.6829 79.1957 19.3783 79.1787 20.1628C79.1787 20.9663 79.3338 21.6787 79.646 22.2999C79.9562 22.9211 80.3959 23.4044 80.963 23.75C81.5302 24.0977 82.1802 24.2695 82.911 24.2695H82.9067Z" fill="#101651" />
        <path d="M98.8563 27.0102C97.3927 27.0102 96.1224 26.6943 95.0412 26.0646C93.9621 25.4349 93.1294 24.5445 92.5453 23.3954C91.959 22.2462 91.668 20.9042 91.668 19.3692C91.668 17.8342 91.9611 16.4985 92.5453 15.3579C93.1294 14.2173 93.9579 13.3268 95.0285 12.6886C96.0991 12.0505 97.3481 11.7303 98.7735 11.7303C100.199 11.7303 101.384 12.042 102.436 12.6611C103.487 13.2823 104.296 14.177 104.864 15.3452C105.431 16.5134 105.713 17.919 105.713 19.5621V20.3572H95.3152C95.3875 21.6356 95.7401 22.5982 96.371 23.247C97.0019 23.8957 97.8388 24.218 98.8818 24.218C99.6678 24.218 100.322 24.0399 100.845 23.6837C101.365 23.3275 101.726 22.8314 101.928 22.1911L105.522 22.4095C105.118 23.8342 104.328 24.9558 103.149 25.7784C101.97 26.5989 100.539 27.0102 98.8563 27.0102ZM95.3174 17.9996H102.094C102.021 16.8123 101.682 15.9325 101.078 15.3579C100.475 14.7834 99.706 14.495 98.7735 14.495C97.8409 14.495 97.0677 14.7961 96.456 15.3982C95.8421 16.0003 95.4639 16.8674 95.3174 17.9996Z" fill="#101651" />
        <path d="M107.702 30.7891V12.0576H111.078L111.16 15.1806L110.804 15.0152C111.169 13.9382 111.768 13.1219 112.601 12.5643C113.433 12.0067 114.406 11.729 115.524 11.729C116.913 11.729 118.07 12.0767 118.994 12.77C119.919 13.4633 120.609 14.3855 121.066 15.5368C121.522 16.6859 121.752 17.9643 121.752 19.37C121.752 20.7756 121.518 22.0541 121.053 23.2032C120.586 24.3523 119.891 25.2746 118.967 25.97C118.043 26.6654 116.885 27.011 115.496 27.011C114.763 27.011 114.083 26.8838 113.452 26.6272C112.822 26.3707 112.282 26.006 111.834 25.5311C111.386 25.0562 111.069 24.5007 110.886 23.8605L111.216 23.587V30.7891H107.704H107.702ZM114.672 24.1615C115.732 24.1615 116.569 23.7375 117.183 22.8873C117.794 22.0393 118.102 20.8647 118.102 19.3679C118.102 17.8711 117.796 16.6986 117.183 15.8484C116.569 15.0004 115.734 14.5742 114.672 14.5742C113.958 14.5742 113.346 14.7523 112.834 15.1085C112.322 15.4647 111.923 15.999 111.64 16.7113C111.356 17.4237 111.216 18.3099 111.216 19.3679C111.216 20.4258 111.354 21.312 111.628 22.0244C111.902 22.7368 112.299 23.2711 112.822 23.6272C113.342 23.9834 113.96 24.1615 114.674 24.1615H114.672Z" fill="#101651" />
        <path d="M151.362 27.011C149.826 27.011 148.59 26.659 147.658 25.9573C146.725 25.2555 146.258 24.2739 146.258 23.0124C146.258 21.7509 146.651 20.7672 147.437 20.0548C148.223 19.3424 149.421 18.8315 151.031 18.5219L155.887 17.5636C155.887 16.5226 155.649 15.7424 155.173 15.223C154.697 14.7036 153.994 14.4428 153.06 14.4428C152.218 14.4428 151.553 14.64 151.071 15.0322C150.587 15.4244 150.251 15.9862 150.069 16.7156L146.502 16.5502C146.795 14.9983 147.507 13.8067 148.641 12.9756C149.776 12.1446 151.248 11.729 153.06 11.729C155.146 11.729 156.722 12.2548 157.792 13.3043C158.863 14.3537 159.398 15.8548 159.398 17.8096V23.1226C159.398 23.5064 159.466 23.7714 159.604 23.9177C159.742 24.064 159.946 24.1361 160.222 24.1361H160.69V26.6824C160.579 26.7184 160.401 26.746 160.154 26.765C159.908 26.7841 159.655 26.7926 159.4 26.7926C158.797 26.7926 158.258 26.6972 157.782 26.5043C157.306 26.3135 156.94 25.9742 156.683 25.4908C156.426 25.0074 156.299 24.346 156.299 23.5064L156.601 23.7248C156.454 24.365 156.138 24.9354 155.653 25.4357C155.169 25.9382 154.559 26.3262 153.829 26.5997C153.098 26.8732 152.274 27.011 151.36 27.011H151.362ZM152.076 24.4647C152.862 24.4647 153.54 24.3099 154.107 23.9983C154.674 23.6887 155.112 23.2583 155.424 22.7113C155.734 22.1643 155.891 21.5156 155.891 20.7672V19.9467L152.104 20.7142C151.318 20.8795 150.755 21.1212 150.417 21.4393C150.079 21.7594 149.909 22.1749 149.909 22.6859C149.909 23.252 150.096 23.6908 150.472 24.0004C150.846 24.312 151.381 24.4668 152.076 24.4668V24.4647Z" fill="#101651" />
        <path d="M165.746 26.6814V14.7683H160.696V12.0566H174.334V14.7683H169.284V26.6814H165.746Z" fill="#101651" />
        <path d="M176.365 26.6814V12.0566H179.877V21.504L185.2 12.0566H188.656V26.6814H185.145V17.48L179.987 26.6814H176.365Z" fill="#101651" />
        <path d="M191.377 26.6814V12.0566H194.944V26.6814H191.377ZM194.725 19.369L200.87 12.0566H205.178L198.922 19.369H194.725ZM201.146 26.6814L194.725 19.369H198.922L205.507 26.6814H201.144H201.146Z" fill="#101651" />
        <path d="M211.017 27.011C209.481 27.011 208.245 26.659 207.312 25.9573C206.379 25.2555 205.912 24.2739 205.912 23.0124C205.912 21.7509 206.305 20.7672 207.091 20.0548C207.877 19.3424 209.075 18.8315 210.685 18.5219L215.541 17.5636C215.541 16.5226 215.303 15.7424 214.827 15.223C214.352 14.7036 213.649 14.4428 212.714 14.4428C211.873 14.4428 211.208 14.64 210.726 15.0322C210.241 15.4244 209.906 15.9862 209.723 16.7156L206.156 16.5502C206.45 14.9983 207.161 13.8067 208.295 12.9756C209.43 12.1446 210.902 11.729 212.714 11.729C214.8 11.729 216.376 12.2548 217.447 13.3043C218.517 14.3537 219.052 15.8548 219.052 17.8096V23.1226C219.052 23.5064 219.12 23.7714 219.259 23.9177C219.397 24.064 219.601 24.1361 219.877 24.1361H220.344V26.6824C220.234 26.7184 220.055 26.746 219.809 26.765C219.562 26.7841 219.31 26.7926 219.055 26.7926C218.451 26.7926 217.912 26.6972 217.436 26.5043C216.96 26.3135 216.595 25.9742 216.338 25.4908C216.081 25.0074 215.953 24.346 215.953 23.5064L216.255 23.7248C216.108 24.365 215.792 24.9354 215.308 25.4357C214.823 25.9382 214.214 26.3262 213.483 26.5997C212.752 26.8732 211.928 27.011 211.014 27.011H211.017ZM211.73 24.4647C212.516 24.4647 213.194 24.3099 213.761 23.9983C214.328 23.6887 214.766 23.2583 215.078 22.7113C215.388 22.1643 215.545 21.5156 215.545 20.7672V19.9467L211.758 20.7142C210.972 20.8795 210.409 21.1212 210.071 21.4393C209.734 21.7594 209.564 22.1749 209.564 22.6859C209.564 23.252 209.751 23.6908 210.127 24.0004C210.5 24.312 211.036 24.4668 211.73 24.4668V24.4647Z" fill="#101651" />
        <path d="M135.023 26.6834H133.598H130.65V24.4488V20.2255H129.008V14.8H127.839V26.6834H124.343V14.8V12.0884H127.839H129.008H131.958V14.8V18.0163H133.598V24.4488H135.023V26.6834Z" fill="#101651" />
        <path d="M134.75 26.6834H137.698V24.4488V20.2255H139.338V14.8H140.509V26.6834H144.005V14.8V12.0884H140.509H139.338H136.39V14.8V18.0163H134.75V24.4488" fill="#101651" />
    </g>
    <defs>
        <linearGradient id="paint0_linear_3460_6204" x1="1.04871e-06" y1="41.5862" x2="44.069" y2="-9.62069" gradientUnits="userSpaceOnUse">
            <stop stop-color="#101651" />
            <stop offset="0.928085" stop-color="#2432B7" />
        </linearGradient>
        <linearGradient id="paint1_linear_3460_6204" x1="11.611" y1="15.2749" x2="23.0423" y2="5.62575" gradientUnits="userSpaceOnUse">
            <stop offset="0.36" stop-color="#00F700" />
            <stop offset="0.91" stop-color="#CDFC3A" />
        </linearGradient>
        <radialGradient id="paint2_radial_3460_6204" cx="0" cy="0" r="1" gradientUnits="userSpaceOnUse" gradientTransform="translate(9.95328 29.7421) scale(7.3689 7.35477)">
            <stop stop-color="#670FE0" />
            <stop offset="0.9" stop-color="#FF00F1" />
        </radialGradient>
        <radialGradient id="paint3_radial_3460_6204" cx="0" cy="0" r="1" gradientUnits="userSpaceOnUse" gradientTransform="translate(27.5927 30.1385) scale(8.35029 8.33428)">
            <stop stop-color="#670FE0" />
            <stop offset="1" stop-color="#FF00F1" />
        </radialGradient>
        <clipPath id="clip0_3460_6204">
            <rect width="220.345" height="36" fill="white" />
        </clipPath>
    </defs>
</svg>