<svg width="176" height="26" viewBox="0 0 176 26" fill="none" xmlns="http://www.w3.org/2000/svg">
<path d="M0 21.0077V6.38293H3.56656V21.0077H0ZM3.34776 13.6953L9.49312 6.38293H13.801L7.54521 13.6953H3.34776ZM9.76926 21.0077L3.34776 13.6953H7.54521L14.1303 21.0077H9.76714H9.76926Z" fill="#101651"/>
<path d="M16.3408 21.0077V6.38293H19.8521V15.8303L25.1754 6.38293H28.6315V21.0077H25.1202V11.8063L19.9626 21.0077H16.3408Z" fill="#101651"/>
<path d="M38.2899 21.4452C37.3022 21.4452 36.3314 21.2629 35.3819 20.8961C34.4302 20.5314 33.5891 19.9187 32.8583 19.0622C32.2168 18.3498 31.7282 17.4191 31.3905 16.2678C31.0527 15.1187 30.8828 13.8212 30.8828 12.3795C30.8828 10.6092 31.0527 9.12509 31.3905 7.92933C31.7282 6.73357 32.2678 5.73922 33.0092 4.94417C33.7505 4.14912 34.7149 3.49823 35.9045 2.98516C36.5077 2.72862 36.9751 2.46996 37.3043 2.20495C37.6336 1.93993 37.8672 1.63463 38.0032 1.28693C38.1413 0.941343 38.2092 0.519434 38.2092 0.0275617L41.3361 0C41.3361 1.20424 41.0982 2.21767 40.6223 3.04028C40.1465 3.86078 39.3223 4.54558 38.154 5.0947C37.5125 5.40636 36.9283 5.71166 36.3973 6.01272C35.8662 6.31378 35.418 6.68905 35.0526 7.1364C34.6873 7.58374 34.4218 8.1583 34.2561 8.86219C34.0925 9.56608 34.0373 10.4735 34.0925 11.5866L33.3511 11.5039C33.6252 10.7004 34.0139 10.0113 34.5173 9.43675C35.0208 8.86219 35.6283 8.41908 36.342 8.10954C37.0558 7.8 37.8417 7.64311 38.702 7.64311C40.0913 7.64311 41.3085 7.93145 42.3514 8.50601C43.3944 9.08056 44.2038 9.8841 44.7794 10.9166C45.3551 11.9491 45.644 13.1385 45.644 14.4912C45.644 15.9159 45.3381 17.1477 44.7242 18.1887C44.1103 19.2297 43.2521 20.0332 42.1454 20.5993C41.0387 21.1654 39.7535 21.4495 38.2899 21.4495V21.4452ZM38.3452 18.5958C39.0589 18.5958 39.6941 18.4219 40.2527 18.0763C40.8093 17.7307 41.2447 17.2452 41.5549 16.6261C41.865 16.0049 42.0222 15.2926 42.0222 14.489C42.0222 13.6855 41.8714 13.0113 41.5697 12.4071C41.2681 11.8049 40.8518 11.3343 40.3207 10.9972C39.7896 10.6601 39.1779 10.4905 38.4833 10.4905C37.7334 10.4905 37.0706 10.6601 36.495 10.9972C35.9193 11.3343 35.4669 11.8049 35.1376 12.4071C34.8084 13.0092 34.6342 13.7046 34.6172 14.489C34.6172 15.2926 34.7722 16.0049 35.0845 16.6261C35.3946 17.2473 35.8344 17.7307 36.4015 18.0763C36.9687 18.424 37.6187 18.5958 38.3494 18.5958H38.3452Z" fill="#101651"/>
<path d="M54.2948 21.3365C52.8312 21.3365 51.5609 21.0206 50.4797 20.3909C49.4006 19.7612 48.5679 18.8708 47.9837 17.7217C47.3975 16.5725 47.1064 15.2305 47.1064 13.6955C47.1064 12.1605 47.3996 10.8248 47.9837 9.6842C48.5679 8.54357 49.3964 7.65311 50.467 7.01494C51.5376 6.37678 52.7866 6.05664 54.2119 6.05664C55.6373 6.05664 56.8226 6.3683 57.8741 6.98738C58.9256 7.60858 59.7349 8.50328 60.3021 9.67148C60.8692 10.8397 61.1518 12.2453 61.1518 13.8884V14.6835H50.7537C50.8259 15.9619 51.1786 16.9245 51.8095 17.5732C52.4404 18.222 53.2773 18.5443 54.3203 18.5443C55.1062 18.5443 55.7605 18.3662 56.2831 18.01C56.8035 17.6538 57.1646 17.1577 57.3664 16.5174L60.9606 16.7358C60.557 18.1605 59.7668 19.2821 58.5878 20.1047C57.4089 20.9252 55.9772 21.3365 54.2948 21.3365ZM50.7558 12.3259H57.5321C57.4599 11.1386 57.12 10.2588 56.5167 9.6842C55.9134 9.10964 55.1445 8.82131 54.2119 8.82131C53.2794 8.82131 52.5062 9.12236 51.8944 9.72448C51.2805 10.3266 50.9024 11.1937 50.7558 12.3259Z" fill="#101651"/>
<path d="M63.1406 25.1154V6.38392H66.516L66.5988 9.50689L66.242 9.34152C66.6073 8.26449 67.2064 7.44823 68.0391 6.89063C68.8718 6.33304 69.8447 6.0553 70.962 6.0553C72.3512 6.0553 73.5089 6.403 74.433 7.09629C75.357 7.78957 76.0474 8.71183 76.5041 9.86307C76.9608 11.0122 77.1902 12.2906 77.1902 13.6963C77.1902 15.1019 76.9565 16.3804 76.4913 17.5295C76.024 18.6786 75.3294 19.6009 74.4053 20.2963C73.4813 20.9917 72.3236 21.3373 70.9344 21.3373C70.2015 21.3373 69.5218 21.2101 68.8909 20.9535C68.26 20.697 67.7204 20.3323 67.2722 19.8574C66.824 19.3825 66.5075 18.827 66.3248 18.1867L66.6541 17.9132V25.1154H63.1428H63.1406ZM70.1102 18.4878C71.1702 18.4878 72.0071 18.0638 72.621 17.2136C73.2328 16.3655 73.5408 15.191 73.5408 13.6942C73.5408 12.1973 73.2349 11.0249 72.621 10.1747C72.0071 9.32668 71.1723 8.90053 70.1102 8.90053C69.3964 8.90053 68.7847 9.07862 68.2727 9.4348C67.7608 9.79099 67.3614 10.3253 67.0789 11.0376C66.7943 11.75 66.6541 12.6362 66.6541 13.6942C66.6541 14.7521 66.7922 15.6383 67.0662 16.3507C67.3402 17.0631 67.7374 17.5973 68.26 17.9535C68.7804 18.3097 69.3986 18.4878 70.1123 18.4878H70.1102Z" fill="#101651"/>
<path d="M106.801 21.3373C105.265 21.3373 104.029 20.9853 103.096 20.2836C102.164 19.5818 101.696 18.6002 101.696 17.3387C101.696 16.0772 102.089 15.0935 102.875 14.3811C103.661 13.6687 104.859 13.1578 106.469 12.8482L111.325 11.8899C111.325 10.8489 111.087 10.0687 110.612 9.54929C110.136 9.02986 109.433 8.76908 108.498 8.76908C107.657 8.76908 106.992 8.96625 106.51 9.35848C106.025 9.7507 105.69 10.3125 105.507 11.0419L101.941 10.8765C102.234 9.32456 102.945 8.13304 104.08 7.30194C105.214 6.47085 106.686 6.0553 108.498 6.0553C110.584 6.0553 112.16 6.58109 113.231 7.63056C114.301 8.68003 114.837 10.1811 114.837 12.1359V17.4489C114.837 17.8327 114.905 18.0977 115.043 18.244C115.181 18.3903 115.385 18.4624 115.661 18.4624H116.128V21.0087C116.018 21.0447 115.839 21.0723 115.593 21.0913C115.346 21.1104 115.094 21.1189 114.839 21.1189C114.236 21.1189 113.696 21.0235 113.22 20.8306C112.744 20.6397 112.379 20.3005 112.122 19.8171C111.865 19.3337 111.737 18.6723 111.737 17.8327L112.039 18.0511C111.893 18.6913 111.576 19.2617 111.092 19.762C110.607 20.2645 109.998 20.6525 109.267 20.926C108.536 21.1995 107.712 21.3373 106.799 21.3373H106.801ZM107.515 18.791C108.3 18.791 108.978 18.6362 109.545 18.3246C110.112 18.015 110.55 17.5846 110.862 17.0376C111.172 16.4906 111.33 15.8419 111.33 15.0935V14.273L107.542 15.0405C106.756 15.2058 106.193 15.4475 105.855 15.7655C105.518 16.0857 105.348 16.5012 105.348 17.0122C105.348 17.5783 105.535 18.0171 105.911 18.3267C106.285 18.6383 106.82 18.7931 107.515 18.7931V18.791Z" fill="#101651"/>
<path d="M121.184 21.0077V9.0946H116.135V6.38293H129.772V9.0946H124.723V21.0077H121.184Z" fill="#101651"/>
<path d="M131.804 21.0077V6.38293H135.315V15.8303L140.638 6.38293H144.094V21.0077H140.583V11.8063L135.425 21.0077H131.804Z" fill="#101651"/>
<path d="M146.815 21.0077V6.38293H150.382V21.0077H146.815ZM150.163 13.6953L156.309 6.38293H160.616L154.361 13.6953H150.163ZM156.585 21.0077L150.163 13.6953H154.361L160.946 21.0077H156.583H156.585Z" fill="#101651"/>
<path d="M166.455 21.3373C164.919 21.3373 163.683 20.9853 162.75 20.2836C161.818 19.5818 161.351 18.6002 161.351 17.3387C161.351 16.0772 161.744 15.0935 162.53 14.3811C163.315 13.6687 164.514 13.1578 166.124 12.8482L170.98 11.8899C170.98 10.8489 170.742 10.0687 170.266 9.54929C169.79 9.02986 169.087 8.76908 168.152 8.76908C167.311 8.76908 166.646 8.96625 166.164 9.35848C165.68 9.7507 165.344 10.3125 165.161 11.0419L161.595 10.8765C161.888 9.32456 162.6 8.13304 163.734 7.30194C164.868 6.47085 166.34 6.0553 168.152 6.0553C170.238 6.0553 171.814 6.58109 172.885 7.63056C173.956 8.68003 174.491 10.1811 174.491 12.1359V17.4489C174.491 17.8327 174.559 18.0977 174.697 18.244C174.835 18.3903 175.039 18.4624 175.315 18.4624H175.783V21.0087C175.672 21.0447 175.494 21.0723 175.247 21.0913C175.001 21.1104 174.748 21.1189 174.493 21.1189C173.89 21.1189 173.35 21.0235 172.874 20.8306C172.399 20.6397 172.033 20.3005 171.776 19.8171C171.519 19.3337 171.392 18.6723 171.392 17.8327L171.693 18.0511C171.547 18.6913 171.23 19.2617 170.746 19.762C170.262 20.2645 169.652 20.6525 168.921 20.926C168.191 21.1995 167.366 21.3373 166.453 21.3373H166.455ZM167.169 18.791C167.955 18.791 168.632 18.6362 169.2 18.3246C169.767 18.015 170.204 17.5846 170.517 17.0376C170.827 16.4906 170.984 15.8419 170.984 15.0935V14.273L167.196 15.0405C166.41 15.2058 165.848 15.4475 165.51 15.7655C165.172 16.0857 165.002 16.5012 165.002 17.0122C165.002 17.5783 165.189 18.0171 165.565 18.3267C165.939 18.6383 166.474 18.7931 167.169 18.7931V18.791Z" fill="#101651"/>
<path d="M90.4618 21.0097H89.0365H86.088V18.7751V14.5518H84.446V9.12633H83.2777V21.0097H79.7812V9.12633V6.41467H83.2777H84.446H87.3966V9.12633V12.3426H89.0365V18.7751H90.4618V21.0097Z" fill="#101651"/>
<path d="M90.1885 21.0097H93.1369V18.7751V14.5518H94.7768V9.12633H95.9472V21.0097H99.4437V9.12633V6.41467H95.9472H94.7768H91.8284V9.12633V12.3426H90.1885V18.7751" fill="#101651"/>
</svg>
