<svg width="23" height="20" viewBox="0 0 23 20" fill="none" xmlns="http://www.w3.org/2000/svg">
    <path d="M0 2.41261V0H2.3682V2.41261H0ZM0 17.5874H2.3682V20H0V17.5874ZM2.87727 2.93123H5.24546V5.34384H2.87727V2.93123ZM5.24546 17.0667H2.87727V14.6541H5.24546V17.0667ZM8.12273 8.273H5.75454V5.86039H8.12273V8.273ZM5.75454 14.1355V11.7229H8.12273V14.1355H5.75454ZM8.6318 8.79369H11V11.2063H8.6318V8.79369Z" fill="#CBD1FF" />
    <path d="M11 2.41261V0H13.3682V2.41261H11ZM11 17.5874H13.3682V20H11V17.5874ZM13.8773 2.93123H16.2455V5.34384H13.8773V2.93123ZM16.2455 17.0667H13.8773V14.6541H16.2455V17.0667ZM19.1227 8.273H16.7545V5.86039H19.1227V8.273ZM16.7545 14.1355V11.7229H19.1227V14.1355H16.7545ZM19.6318 8.79369H22V11.2063H19.6318V8.79369Z" fill="#CBD1FF" />
</svg>