<svg width="1288" height="509" viewBox="0 0 1288 509" fill="none" xmlns="http://www.w3.org/2000/svg">
    <rect x="226.183" width="75.3926" height="508.9" fill="#F8F9FE" />
    <rect x="1130.89" width="75.3926" height="508.9" fill="#F8F9FE" />
    <rect x="452.354" y="75.3944" width="75.3926" height="358.115" fill="#F8F9FE" />
    <rect x="527.749" y="508.906" width="75.3926" height="226.178" transform="rotate(-90 527.749 508.906)" fill="#F8F9FE" />
    <rect x="527.749" y="75.3944" width="75.3926" height="226.178" transform="rotate(-90 527.749 75.3944)" fill="#F8F9FE" />
    <rect x="753.92" y="75.3944" width="75.3926" height="358.115" fill="#F8F9FE" />
    <rect y="226.183" width="75.3926" height="150.785" fill="#F8F9FE" />
    <rect x="904.709" y="226.183" width="75.3926" height="150.785" fill="#F8F9FE" />
    <rect x="75.3944" y="150.789" width="75.3926" height="75.3926" fill="#F8F9FE" />
    <rect x="980.115" y="150.789" width="75.3926" height="75.3926" fill="#F8F9FE" />
    <rect x="150.777" y="75.3944" width="75.3926" height="75.3926" fill="#F8F9FE" />
    <rect x="1055.5" y="75.3944" width="75.3926" height="75.3926" fill="#F8F9FE" />
    <rect y="376.972" width="75.3926" height="383.246" transform="rotate(-90 0 376.972)" fill="#F8F9FE" />
    <rect x="904.709" y="376.972" width="75.3926" height="383.246" transform="rotate(-90 904.709 376.972)" fill="#F8F9FE" />
</svg>