<svg width="46" height="29" viewBox="0 0 46 29" fill="none" xmlns="http://www.w3.org/2000/svg">
    <path d="M14.0244 14.4436H10.5182V17.9499H14.0244V14.4436Z" fill="white" />
    <path d="M10.5176 17.9509H7.01132V21.4572H10.5176V17.9509Z" fill="white" />
    <path d="M7.01172 21.4568H3.50546V24.963H7.01172V21.4568Z" fill="white" />
    <path d="M3.50586 24.9639H-0.000396252V28.4701H3.50586V24.9639Z" fill="white" />
    <path d="M3.50586 3.92554H-0.000396252V7.43179H3.50586V3.92554Z" fill="white" />
    <path d="M7.01172 7.43115H3.50546V10.9374H7.01172V7.43115Z" fill="white" />
    <path d="M10.5176 10.9382H7.01132V14.4445H10.5176V10.9382Z" fill="white" />
    <path d="M30.0127 14.4436H26.5064V17.9499H30.0127V14.4436Z" fill="white" />
    <path d="M26.5078 17.9509H23.0016V21.4572H26.5078V17.9509Z" fill="white" />
    <path d="M23.001 21.4568H19.4947V24.963H23.001V21.4568Z" fill="white" />
    <path d="M19.4941 24.9639H15.9879V28.4701H19.4941V24.9639Z" fill="white" />
    <path d="M19.4941 3.92554H15.9879V7.43179H19.4941V3.92554Z" fill="white" />
    <path d="M23.001 7.43115H19.4947V10.9374H23.001V7.43115Z" fill="white" />
    <path d="M26.5078 10.9382H23.0016V14.4445H26.5078V10.9382Z" fill="white" />
    <path d="M46 14.4436H42.4937V17.9499H46V14.4436Z" fill="white" />
    <path d="M42.4932 17.9509H38.9869V21.4572H42.4932V17.9509Z" fill="white" />
    <path d="M38.9873 21.4568H35.481V24.963H38.9873V21.4568Z" fill="white" />
    <path d="M35.4814 24.9639H31.9752V28.4701H35.4814V24.9639Z" fill="white" />
    <path d="M35.4814 3.92554H31.9752V7.43179H35.4814V3.92554Z" fill="white" />
    <path d="M38.9873 7.43115H35.481V10.9374H38.9873V7.43115Z" fill="white" />
    <path d="M42.4932 10.9382H38.9869V14.4445H42.4932V10.9382Z" fill="white" />
</svg>