<svg width="36" height="21" viewBox="0 0 36 21" fill="none" xmlns="http://www.w3.org/2000/svg">
    <path d="M20.5732 20.557L20.5732 15.4178L15.4305 15.4178L15.4305 20.557L20.5732 20.557Z" fill="#101651" />
    <path d="M15.4287 15.4203L15.4287 10.2811L10.286 10.2811L10.286 15.4203L15.4287 15.4203Z" fill="#101651" />
    <path d="M10.2871 10.2797L10.2871 5.14046L5.14435 5.14046L5.14435 10.2797L10.2871 10.2797Z" fill="#101651" />
    <path d="M5.14258 5.13906L5.14258 -0.000165462L-0.000182432 -0.000165238L-0.000182207 5.13906L5.14258 5.13906Z" fill="#101651" />
    <path d="M36 5.13906L36 -0.000165462L30.8572 -0.000165238L30.8572 5.13906L36 5.13906Z" fill="#101651" />
    <path d="M30.8584 10.2797L30.8584 5.14046L25.7156 5.14046L25.7156 10.2797L30.8584 10.2797Z" fill="#101651" />
    <path d="M25.7139 15.4203L25.7139 10.2811L20.5711 10.2811L20.5711 15.4203L25.7139 15.4203Z" fill="#101651" />
</svg>