<svg width="79" height="66" viewBox="0 0 79 66" fill="none" xmlns="http://www.w3.org/2000/svg">
    <path d="M43.8828 5.7334H43.8848V2.86719H49.7305V5.7334H52.6729V8.60059H55.5967V14.3555H46.8066V11.4893H32.1943V14.3555H35.1162V17.2217H38.0381V20.0889H40.9619V22.9561H43.8838V28.6895H43.8848V25.8223H46.8076V28.6895H49.7295V31.5557H52.6729V34.4443H58.5195V37.3105H61.4424V40.1777H64.3643V45.9111H64.3652V43.0439H67.2881V45.9111H70.21V51.6445H70.2109V48.7783H73.1338V51.6445H76.0771V60.2666H73.1338V63.1338H70.2109V60.2666H70.21V66H67.2871V63.1338H64.3652V60.2666H61.4414V57.4004H58.5195V54.5117H55.5957V51.6455H52.6738V40.1777H52.6729V48.7783H49.7285V45.9111H46.8066V40.1777H43.8848V37.3105H43.8838V37.3115H40.9609V34.4443H38.0391V28.6895H38.0381V31.5566H35.1152V28.6895H32.1934V25.8232H29.2715V22.9561H32.1934V22.9551H29.2715V20.0889H29.2705V22.9561H26.3262V17.2227H26.3252V20.0889H23.4033V28.6895H20.4814V31.5566H17.5586V28.6904H17.5576V34.4443H14.6357V37.3105H11.7129V34.4443H8.78906V31.5566H5.86719V28.6895H2.92188V25.8232H0V22.9561H2.92188V20.0889H5.86719V17.2217H8.78906V14.3555H17.5566L20.4795 14.3564V14.3555H17.5586V8.60059H20.4805V5.7334H23.4023V2.86719H35.1152V0H43.8828V5.7334ZM67.2861 60.2666H67.2871V57.3994H67.2861V60.2666ZM79.001 57.4004H76.0781V54.5117H79.001V57.4004ZM61.4404 54.5117H64.3643V54.5107H61.4414V51.6445H61.4404V54.5117ZM55.5967 48.7783H58.5186V51.6445H58.5195V48.7773H55.5967V48.7783ZM17.5566 25.8223H17.5576V25.8232H20.4795V28.6895H20.4805V25.8223H17.5586V20.0898H17.5566V25.8223ZM20.4795 20.0889H20.4805V17.2227H20.4795V20.0889ZM29.2695 11.4883H29.2705V14.3555H29.2686V17.2217H29.2705V17.2227H32.1924V20.0889H32.1934V17.2217H29.2715V8.60156H29.2695V11.4883ZM23.4023 17.2217H23.4043V14.3564H23.4023V17.2217ZM26.3252 14.3555H26.3262V11.4893H26.3252V14.3555ZM20.4814 8.60156H23.4023V8.60059H20.4814V8.60156ZM32.1924 8.60059H32.1934V5.73438H32.1924V8.60059ZM49.7275 8.60059H49.7285V5.73438H49.7275V8.60059Z" fill="black" />
    <path d="M43.8828 5.7334H43.8848V2.86719H49.7305V5.7334H52.6729V8.60059H55.5967V14.3555H46.8066V11.4893H32.1943V14.3555H35.1162V17.2217H38.0381V20.0889H40.9619V22.9561H43.8838V28.6895H43.8848V25.8223H46.8076V28.6895H49.7295V31.5557H52.6729V34.4443H58.5195V37.3105H61.4424V40.1777H64.3643V45.9111H64.3652V43.0439H67.2881V45.9111H70.21V51.6445H70.2109V48.7783H73.1338V51.6445H76.0771V60.2666H73.1338V63.1338H70.2109V60.2666H70.21V66H67.2871V63.1338H64.3652V60.2666H61.4414V57.4004H58.5195V54.5117H55.5957V51.6455H52.6738V40.1777H52.6729V48.7783H49.7285V45.9111H46.8066V40.1777H43.8848V37.3105H43.8838V37.3115H40.9609V34.4443H38.0391V28.6895H38.0381V31.5566H35.1152V28.6895H32.1934V25.8232H29.2715V22.9561H32.1934V22.9551H29.2715V20.0889H29.2705V22.9561H26.3262V17.2227H26.3252V20.0889H23.4033V28.6895H20.4814V31.5566H17.5586V28.6904H17.5576V34.4443H14.6357V37.3105H11.7129V34.4443H8.78906V31.5566H5.86719V28.6895H2.92188V25.8232H0V22.9561H2.92188V20.0889H5.86719V17.2217H8.78906V14.3555H17.5566L20.4795 14.3564V14.3555H17.5586V8.60059H20.4805V5.7334H23.4023V2.86719H35.1152V0H43.8828V5.7334ZM67.2861 60.2666H67.2871V57.3994H67.2861V60.2666ZM79.001 57.4004H76.0781V54.5117H79.001V57.4004ZM61.4404 54.5117H64.3643V54.5107H61.4414V51.6445H61.4404V54.5117ZM55.5967 48.7783H58.5186V51.6445H58.5195V48.7773H55.5967V48.7783ZM17.5566 25.8223H17.5576V25.8232H20.4795V28.6895H20.4805V25.8223H17.5586V20.0898H17.5566V25.8223ZM20.4795 20.0889H20.4805V17.2227H20.4795V20.0889ZM29.2695 11.4883H29.2705V14.3555H29.2686V17.2217H29.2705V17.2227H32.1924V20.0889H32.1934V17.2217H29.2715V8.60156H29.2695V11.4883ZM23.4023 17.2217H23.4043V14.3564H23.4023V17.2217ZM26.3252 14.3555H26.3262V11.4893H26.3252V14.3555ZM20.4814 8.60156H23.4023V8.60059H20.4814V8.60156ZM32.1924 8.60059H32.1934V5.73438H32.1924V8.60059ZM49.7275 8.60059H49.7285V5.73438H49.7275V8.60059Z" fill="url(#paint0_linear_3016_1950)" />
    <defs>
        <linearGradient id="paint0_linear_3016_1950" x1="20.54" y1="24.3439" x2="56.2169" y2="58.5509" gradientUnits="userSpaceOnUse">
            <stop stop-color="#C6C9EC" />
            <stop offset="1" stop-color="#EED2EC" />
        </linearGradient>
    </defs>
</svg>