<svg width="66" height="57" viewBox="0 0 66 57" fill="none" xmlns="http://www.w3.org/2000/svg">
    <path d="M30.585 56.4209H26.2148V52.083H30.585V56.4209ZM39.3174 56.4209H30.5859V8.68262H34.9551V4.3457H39.3174V56.4209ZM26.2139 52.083H21.8438V47.7451H17.4746V0H26.2139V52.083ZM48.0576 47.7451H43.6885V52.083H39.3184V0H48.0576V47.7451ZM30.585 52.082H26.2148V4.3457H30.585V52.082ZM17.4736 43.3994H13.1113V39.0625H8.74219V0H17.4736V43.3994ZM52.4287 43.3994H48.0586V0H52.4287V43.3994ZM56.7998 4.3457H61.1611V34.7246H56.7998V39.0625H52.4297V0H56.7998V4.3457ZM8.74121 34.7246H4.37109V4.3457H8.74121V34.7246ZM4.37012 30.3789H0V8.68262H4.37012V30.3789ZM65.5322 30.3789H61.1621V8.68262H65.5322V30.3789Z" fill="black" />
    <path d="M30.585 56.4209H26.2148V52.083H30.585V56.4209ZM39.3174 56.4209H30.5859V8.68262H34.9551V4.3457H39.3174V56.4209ZM26.2139 52.083H21.8438V47.7451H17.4746V0H26.2139V52.083ZM48.0576 47.7451H43.6885V52.083H39.3184V0H48.0576V47.7451ZM30.585 52.082H26.2148V4.3457H30.585V52.082ZM17.4736 43.3994H13.1113V39.0625H8.74219V0H17.4736V43.3994ZM52.4287 43.3994H48.0586V0H52.4287V43.3994ZM56.7998 4.3457H61.1611V34.7246H56.7998V39.0625H52.4297V0H56.7998V4.3457ZM8.74121 34.7246H4.37109V4.3457H8.74121V34.7246ZM4.37012 30.3789H0V8.68262H4.37012V30.3789ZM65.5322 30.3789H61.1621V8.68262H65.5322V30.3789Z" fill="url(#paint0_linear_3016_2187)" />
    <defs>
        <linearGradient id="paint0_linear_3016_2187" x1="17.0382" y1="20.8107" x2="47.4847" y2="49.1371" gradientUnits="userSpaceOnUse">
            <stop stop-color="#C6C9EC" />
            <stop offset="1" stop-color="#EED2EC" />
        </linearGradient>
    </defs>
</svg>