<svg width="25" height="25" viewBox="0 0 25 25" fill="none" xmlns="http://www.w3.org/2000/svg">
    <path fill-rule="evenodd" clip-rule="evenodd" d="M0 12.5C0 5.59625 5.59625 0 12.5 0C19.4037 0 25 5.59625 25 12.5C25 19.4037 19.4037 25 12.5 25C5.59625 25 0 19.4037 0 12.5ZM10.625 7.5C10.625 7.00272 10.8225 6.52581 11.1742 6.17417C11.5258 5.82254 12.0027 5.625 12.5 5.625H12.5125C13.0098 5.625 13.4867 5.82254 13.8383 6.17417C14.19 6.52581 14.3875 7.00272 14.3875 7.5V7.5125C14.3875 8.00978 14.19 8.4867 13.8383 8.83833C13.4867 9.18996 13.0098 9.3875 12.5125 9.3875H12.5C12.0027 9.3875 11.5258 9.18996 11.1742 8.83833C10.8225 8.4867 10.625 8.00978 10.625 7.5125V7.5ZM12.5 11.25C12.8315 11.25 13.1495 11.3817 13.3839 11.6161C13.6183 11.8505 13.75 12.1685 13.75 12.5V17.5C13.75 17.8315 13.6183 18.1495 13.3839 18.3839C13.1495 18.6183 12.8315 18.75 12.5 18.75C12.1685 18.75 11.8505 18.6183 11.6161 18.3839C11.3817 18.1495 11.25 17.8315 11.25 17.5V12.5C11.25 12.1685 11.3817 11.8505 11.6161 11.6161C11.8505 11.3817 12.1685 11.25 12.5 11.25Z"  />
</svg>