<svg width="50" height="65" viewBox="0 0 50 65" fill="none" xmlns="http://www.w3.org/2000/svg">
    <path d="M34.9941 49.6699H30.002V54.6436H25V59.6074H19.998V64.5713H9.99414V54.6436H14.9961V44.7061H34.9941V49.6699ZM34.9941 24.8398H50V34.7773H44.998V39.7412H39.9961V44.7051H19.998V39.7412H5.00195V34.7773H0V24.8398H5.00195V14.9023H34.9941V24.8398ZM45.1016 5.66211H39.9961V14.9014H9.99414V4.97363H14.9961V0H45.1016V5.66211Z" fill="black" />
    <path d="M34.9941 49.6699H30.002V54.6436H25V59.6074H19.998V64.5713H9.99414V54.6436H14.9961V44.7061H34.9941V49.6699ZM34.9941 24.8398H50V34.7773H44.998V39.7412H39.9961V44.7051H19.998V39.7412H5.00195V34.7773H0V24.8398H5.00195V14.9023H34.9941V24.8398ZM45.1016 5.66211H39.9961V14.9014H9.99414V4.97363H14.9961V0H45.1016V5.66211Z" fill="url(#paint0_linear_3016_798)" />
    <defs>
        <linearGradient id="paint0_linear_3016_798" x1="15.6674" y1="5.32547" x2="56.0344" y2="70.0994" gradientUnits="userSpaceOnUse">
            <stop stop-color="#C6C9EC" />
            <stop offset="1" stop-color="#EED2EC" />
        </linearGradient>
    </defs>
</svg>