<svg width="50" height="56" viewBox="0 0 50 56" fill="none" xmlns="http://www.w3.org/2000/svg">
    <path d="M13.0352 0.613052V1.22638H12.1789H11.3225V1.83288V2.43939L14.1294 2.48709L16.9363 2.53479V3.17537V3.81596H17.8877H18.8392V7.12107V10.4262H17.8687H16.8887L16.9172 11.1077L16.9458 11.7891H14.1389H11.3225V12.4706V13.1521H15.0809H18.8392V13.7654V14.3787H17.8687H16.8887V15.0397V15.7076L15.9372 15.728L14.9857 15.7485V16.4231V17.1046H14.0628H13.1304V17.786V18.4675H12.2265H11.3225V19.1149V19.7623L13.1589 19.7759L14.9857 19.7964L15.0143 20.4915L15.0428 21.1934H14.0818H13.1304V23.1696V25.1459H12.2074H11.275L11.3035 27.8377L11.3321 30.5295H10.3235H9.32445L9.34348 33.2213L9.37203 35.9063L8.42055 35.9267L7.46908 35.9472V37.9779V40.0019H6.54615H5.6137V41.3308V42.6596H4.66223H3.71075V43.9885V45.3173H2.75928H1.8078V45.9988V46.6803H0.903901H0V47.3617C0 47.8728 0.0285442 48.0432 0.123692 48.0364C0.18078 48.0296 1.44624 48.0296 2.93054 48.0364L5.62322 48.0432L5.59467 48.6702L5.56613 49.3039L4.6432 49.3244L3.71075 49.3448V49.9854V50.6328H2.80685H1.91246L1.88392 51.9617L1.85538 53.2905H2.78782H3.71075V53.972V54.6535H4.66223H5.6137V55.3008V55.9482H8.46813H11.3225V55.3008V54.6535H12.2074H13.1018L13.1113 54.0061L13.1208 53.3587H11.2179H9.32445V51.9957V50.6328H10.2759H11.2274V50.1626C11.2274 49.9036 11.2559 49.597 11.2845 49.4811L11.3511 49.2699H12.9781C13.8725 49.2699 14.7003 49.2903 14.824 49.3107C15.0238 49.3516 15.0333 49.3857 15.0333 49.9922V50.6328H22.5975H30.1617V49.9854V49.338H32.0647H33.9677V50.6328V51.9276H34.8715H35.7755V53.9379V55.9482H37.6784H39.5813V55.3008V54.6535H41.5319H43.4824V53.7675V52.8816H44.2911H45.0999V51.7231V50.5646H44.196H43.2921V51.2461V51.9276H41.4367H39.5813V51.2802V50.6396L38.6584 50.6192L37.726 50.5987V49.9513V49.3039L38.6299 49.2699L39.5338 49.2358V47.9546V46.6803H38.6584H37.7735V44.67V42.6596H36.8221H35.8706V41.3308V40.0019H34.9191H33.9677V37.9575V35.9131H32.9686H31.9696V35.2657V34.6183H33.8725H35.7755V35.2657V35.9131H37.3454H38.9153V35.2657V34.6183H39.8192H40.7231V33.2213V31.8243H41.6746H42.6261L42.6451 30.5227L42.6736 29.2211H43.2921C43.6346 29.2143 44.0247 29.2211 44.177 29.2279L44.4339 29.2347V29.8821V30.5295H45.3853H46.3368V43.2389V55.9482H47.2883H48.2398V42.5574V29.1666H49.1246H50V27.1903V25.214H49.1246H48.2398V20.4778V15.7416H49.1246H50V11.7551V7.76847H49.0485H48.097L48.1066 11.0736L48.1256 14.3787H47.2312H46.3368V19.7964V25.214H45.3853H44.4339V25.8614V26.5088H40.1047H35.7755V25.1459V23.783H36.7269H37.6784V21.8203V19.8645L36.7269 19.885L35.7755 19.9054V18.5084V17.1046H34.8715H33.9677V16.4231V15.7416H34.9191H35.8706V14.4128V13.0839H34.9191H33.9677V11.7551V10.4262H37.8211H41.6746V9.74472V9.06326H40.6755H39.6765V8.41586V7.76847H35.8706H32.0647V7.12107V6.47368H31.1608H30.2569V5.82628V5.17889H29.2579H28.2588V4.49742V3.81596H27.3073H26.3559V3.16856V2.52117H25.4044H24.4529V1.87377V1.22638H22.55H20.647V0.613052V-0.000270844H16.8411H13.0352V0.613052ZM28.2398 22.4609L28.2112 23.7966L27.2788 23.8034L26.3559 23.817V22.4677V21.1252H27.3073H28.2588L28.2398 22.4609ZM30.1617 24.4985V25.1459H32.0647H33.9677V25.8274V26.5088H34.8715H35.7755V27.1903V27.8718H34.8715H33.9677V27.1903V26.5088H32.0647H30.1617V25.8614V25.214H29.2103H28.2588V24.5326V23.8511H29.2103H30.1617V24.4985ZM22.55 27.8036V29.1666H21.6461H20.7422V27.8036V26.4407H21.6461H22.55V27.8036ZM24.5005 29.848V30.4954L23.53 30.5159L22.55 30.5363V29.8957C22.55 29.5414 22.5785 29.2347 22.6166 29.2074C22.6546 29.1802 23.0923 29.1734 23.5966 29.1802L24.5005 29.2006V29.848ZM26.3559 31.1769C26.3559 31.7493 26.3749 31.8243 26.5271 31.8311C26.6128 31.8311 27.0504 31.8379 27.4881 31.8447L28.2873 31.8584L28.2683 32.5534L28.2493 33.2554H30.1142H31.9791L31.9505 33.9028C31.9315 34.2571 31.8934 34.5502 31.8554 34.5502C31.8078 34.5502 30.9895 34.5502 30.019 34.5502H28.2588V33.9028V33.2554H27.3073H26.3559V32.5807V31.8992L25.4329 31.9061H24.5005L24.4719 31.2178L24.4434 30.5295H25.4044H26.3559V31.1769Z" fill="url(#paint0_linear_3016_544)"/>
    <defs>
        <linearGradient id="paint0_linear_3016_544" x1="18.381" y1="46.8482" x2="29.9934" y2="-6.74011" gradientUnits="userSpaceOnUse">
            <stop stop-color="#C6C9EC"/>
            <stop offset="0.543315" stop-color="#EED2EC"/>
            <stop offset="1" stop-color="#D9DBF2"/>
        </linearGradient>
    </defs>
</svg>