<svg width="61" height="61" viewBox="0 0 61 61" fill="none" xmlns="http://www.w3.org/2000/svg">
    <path d="M12.2119 61H4.08594V52.8711H8.14844V44.7363H12.2119V61ZM20.3447 56.9355H16.2891V61H12.2188V44.7363H20.3447V56.9355ZM52.8877 52.8711H56.9502V61H44.7539V56.9355H36.6211V52.8711H32.5586V44.7363H52.8877V52.8711ZM28.4795 52.8711H24.416V56.9355H20.3457V44.7363H28.4795V52.8711ZM32.5439 48.8008H28.4805V44.7363H32.5439V48.8008ZM32.5283 28.4648H32.5352V4.07129H36.5986V12.2002H40.668V20.3359H44.7314V28.4648H44.7324V20.3359H48.7959V28.4648H48.7969V20.3359H61V28.4648H56.9502V32.5361H52.8877V36.5996H48.8242V44.7354H32.5586V28.4648H32.5439V44.7354H28.4805V28.4648H28.4795V44.7354H20.3457V28.4648H20.3447V44.7354H12.2188V32.5361H12.2119V36.5996H8.14844V32.5361H4.08594V28.4648H0V20.3359H12.1963V28.4648H12.1973V20.3359H16.2607V28.4648H16.2617V20.3359H20.332V12.2002H24.3945V4.07129H28.4648V0H32.5283V28.4648Z" fill="black" />
    <path d="M12.2119 61H4.08594V52.8711H8.14844V44.7363H12.2119V61ZM20.3447 56.9355H16.2891V61H12.2188V44.7363H20.3447V56.9355ZM52.8877 52.8711H56.9502V61H44.7539V56.9355H36.6211V52.8711H32.5586V44.7363H52.8877V52.8711ZM28.4795 52.8711H24.416V56.9355H20.3457V44.7363H28.4795V52.8711ZM32.5439 48.8008H28.4805V44.7363H32.5439V48.8008ZM32.5283 28.4648H32.5352V4.07129H36.5986V12.2002H40.668V20.3359H44.7314V28.4648H44.7324V20.3359H48.7959V28.4648H48.7969V20.3359H61V28.4648H56.9502V32.5361H52.8877V36.5996H48.8242V44.7354H32.5586V28.4648H32.5439V44.7354H28.4805V28.4648H28.4795V44.7354H20.3457V28.4648H20.3447V44.7354H12.2188V32.5361H12.2119V36.5996H8.14844V32.5361H4.08594V28.4648H0V20.3359H12.1963V28.4648H12.1973V20.3359H16.2607V28.4648H16.2617V20.3359H20.332V12.2002H24.3945V4.07129H28.4648V0H32.5283V28.4648Z" fill="url(#paint0_linear_3016_2045)" />
    <defs>
        <linearGradient id="paint0_linear_3016_2045" x1="14" y1="0.399902" x2="45.4968" y2="61.4015" gradientUnits="userSpaceOnUse">
            <stop stop-color="#C6C9EC" />
            <stop offset="1" stop-color="#EED2EC" />
        </linearGradient>
    </defs>
</svg>