<svg width="24" height="24" viewBox="0 0 24 24" fill="none" xmlns="http://www.w3.org/2000/svg">
    <g clip-path="url(#clip0_5159_488)">
        <path d="M12.0049 24.0059C18.6323 24.0059 24.0049 18.6333 24.0049 12.0059C24.0049 5.37844 18.6323 0.00585938 12.0049 0.00585938C5.37747 0.00585938 0.00488281 5.37844 0.00488281 12.0059C0.00488281 18.6333 5.37747 24.0059 12.0049 24.0059Z" fill="url(#paint0_linear_5159_488)" fill-opacity="0.7" />
        <path fill-rule="evenodd" clip-rule="evenodd" d="M5.43026 11.8749C8.92734 10.3561 11.2554 9.34698 12.4244 8.85738C15.7517 7.46854 16.4511 7.22874 16.9007 7.21875C17.0006 7.21875 17.2204 7.23873 17.3703 7.35863C17.4902 7.45855 17.5202 7.58844 17.5402 7.68836C17.5601 7.78828 17.5801 7.9981 17.5601 8.15797C17.3803 10.0564 16.6009 14.6625 16.2013 16.7808C16.0314 17.68 15.7017 17.9798 15.382 18.0098C14.6825 18.0697 14.153 17.5501 13.4835 17.1105C12.4244 16.4211 11.8349 15.9914 10.8058 15.312C9.61677 14.5327 10.3861 14.103 11.0656 13.4036C11.2454 13.2237 14.3129 10.4261 14.3728 10.1763C14.3828 10.1463 14.3828 10.0264 14.3129 9.96646C14.2429 9.90651 14.143 9.92649 14.0631 9.94648C13.9532 9.96646 12.2746 11.0855 9.00728 13.2937C8.52767 13.6234 8.09803 13.7833 7.70836 13.7733C7.27872 13.7633 6.4594 13.5335 5.83991 13.3337C5.09054 13.0939 4.49104 12.964 4.541 12.5443C4.57097 12.3245 4.87072 12.1047 5.43026 11.8749Z" fill="white" />
    </g>
    <defs>
        <linearGradient id="paint0_linear_5159_488" x1="11.9949" y1="0.00585938" x2="11.9949" y2="23.816" gradientUnits="userSpaceOnUse">
            <stop stop-color="#2AABEE" />
            <stop offset="1" stop-color="#229ED9" />
        </linearGradient>
        <clipPath id="clip0_5159_488">
            <rect width="24" height="24" fill="white" />
        </clipPath>
    </defs>
</svg>