<svg width="71" height="65" viewBox="0 0 71 65" fill="none" xmlns="http://www.w3.org/2000/svg">
    <path d="M69.6093 0.00743103L71 0.0173492L70.9851 1.34575L70.9702 2.66919L69.5596 2.68406L68.1441 2.69398L68.1342 4.01742L68.1193 5.33591L66.7633 5.326L65.4074 5.31609L65.4124 6.66927L65.4173 8.02246L64.0267 8.03733L62.631 8.04724L62.6211 9.42025L62.6062 10.7933L61.7221 10.7784L60.843 10.7635V11.8391V12.9098L61.7916 12.8999L62.7353 12.8949L62.7303 14.5009V16.1069L64.0813 16.087L65.4372 16.0672V17.6335V19.1999H66.7633H68.0845L68.0944 21.5295L68.0994 23.8592H66.818H65.5366L65.5515 24.5036L65.5664 25.1479H64.0962H62.626L62.6409 23.8592L62.6558 22.5655L59.8993 22.5704H57.1427L57.1576 21.4304L57.1775 20.2903H55.752C54.4706 20.2903 54.3265 20.3003 54.3563 20.3697C54.3712 20.4143 54.3861 22.4564 54.3861 24.915V29.3859L55.2901 29.3711L56.199 29.3512V33.5595V37.7628L55.156 37.7727L54.113 37.7826L54.0981 38.6005L54.0881 39.4233H56.8695H59.6509V40.717V42.0157L61.1509 41.981L62.6459 41.9413L62.6161 42.3279C62.5962 42.5361 62.5813 44.5039 62.5813 46.6948V50.6751H61.136H59.6907L59.7105 53.1534L59.7254 55.6318H58.1708H56.6212V57.1188V58.6058H55.0517H53.4822L53.5021 57.4906L53.517 56.3753H52.8365H52.161L52.1412 54.6751C52.1312 53.7433 52.1362 52.9155 52.1461 52.8412L52.161 52.7024L53.6262 52.7172L55.0865 52.7321L55.0815 51.5921L55.0765 50.452L56.3182 50.4718L57.5649 50.4917L57.5748 47.5226C57.5847 45.8869 57.5897 44.5486 57.5897 44.5436C57.5847 44.5386 55.7371 44.5238 53.4772 44.5188L49.3697 44.5039V47.587V50.6751H48.436H47.5072V56.2514V61.8277H48.9028H50.3035V63.4138L50.2985 65H47.6264H44.9493V63.6617V62.3283L44.3781 62.3135L43.8069 62.2986V53.4558C43.8069 48.5982 43.8218 44.5981 43.8367 44.5733C43.8516 44.5486 41.855 44.5287 39.0041 44.5287H34.1466L34.1615 43.6365L34.1813 42.7443H31.7526H29.3288L29.3437 43.6365L29.3586 44.5287H28.1864H27.0143L27.0292 45.7283L27.0441 46.9228L25.8123 46.9278L24.5756 46.9327L24.5706 47.8497L24.5607 48.7667L23.3786 48.7816L22.2015 48.7915L22.2114 49.7977L22.2263 50.799L23.4481 50.8139L24.67 50.8238L24.665 52.0035L24.66 53.1782L25.7626 53.1683L26.8603 53.1534L26.8355 53.9019L26.8057 54.6454L27.4712 54.6107L28.1368 54.576L28.1219 56.9404L28.107 59.2998H28.9861H29.8652L29.8354 59.7062C29.8155 59.9342 29.8006 61.218 29.8006 62.5563V65H27.4811H25.1666L25.1964 63.6468L25.2262 62.2936L23.915 62.3135L22.5988 62.3382V60.767V59.2006H23.5425H24.4862L24.4961 58.011C24.5011 57.3567 24.5061 56.7322 24.511 56.6182V56.4199L23.2296 56.4249L21.9531 56.4298V55.0023V53.5748H20.6618H19.3704V52.1224V50.6751H16.6983H14.0311L14.0113 54.9874L13.9914 59.2998H14.8059H15.6205L15.6056 60.5637L15.5857 61.8277H16.8225H18.0592L18.0542 63.399V64.9752L14.8109 64.9901L11.5626 65L11.5775 63.6567L11.5974 62.3184L10.8325 62.3085L10.0726 62.2986L10.0627 54.69L10.0577 47.0814L11.4583 47.0666L12.8639 47.0567V45.6192V44.1818H14.1801H15.4963V41.7777V39.3737H14.1801H12.8639V35.111V30.8482H14.1801H15.4963V29.5346V28.2211H14.1652H12.8391V29.0737V29.9312H11.5825L10.3309 29.9262V31.1555V32.3848H9.80937H9.28786V37.168V41.9512H7.67366H6.05946V43.24V44.5287H3.02973H0V41.976V39.4233L1.5248 39.4134L3.05457 39.3985V33.4901V27.5767L4.39559 27.5668L5.73662 27.5519L5.71675 26.174L5.69688 24.801H9.30276H12.9136L12.8788 25.4206L12.849 26.0401H14.195H15.546V27.1058V28.1715H16.9615H18.3771V26.8084V25.4453H27.357H36.3369L36.317 24.0575L36.2922 22.6696H37.7723H39.2524L39.2176 21.3313L39.1829 19.9929H40.4742H41.7705V18.3324V16.6719H42.8682H43.9609L43.951 15.3039L43.946 13.9358L45.3665 13.9457L46.787 13.9507V12.543V11.1353L48.7787 11.1601L50.7753 11.1848L50.7554 9.80688L50.7356 8.43386L52.1163 8.43882L53.4971 8.44873L53.4872 6.8725L53.4772 5.29626H55.0567H56.6411L56.6262 7.11042L56.6113 8.92458L56.7503 8.95432C56.8298 8.96919 57.4953 8.98406 58.2404 8.98406L59.5864 8.98902L59.6211 8.83536C59.636 8.75109 59.6509 8.51317 59.6509 8.3149V7.9481L61.1261 7.93819L62.5962 7.92332L62.5863 6.62466L62.5764 5.32104L63.982 5.31113L65.3875 5.29626V3.98768L65.3925 2.67911L66.7683 2.68902L68.1441 2.69893V1.36062C68.1441 0.627022 68.159 0.0173492 68.1789 0.00743103C68.2037 -0.00247955 68.8444 -0.00247955 69.6093 0.00743103Z" fill="url(#paint0_linear_3388_11395)" />
    <defs>
        <linearGradient id="paint0_linear_3388_11395" x1="44.8989" y1="54.4277" x2="33.695" y2="-8.76733" gradientUnits="userSpaceOnUse">
            <stop stop-color="#C6C9EC" />
            <stop offset="0.543315" stop-color="#EED2EC" />
            <stop offset="1" stop-color="#D9DBF2" />
        </linearGradient>
    </defs>
</svg>