<svg width="24" height="25" viewBox="0 0 24 25" fill="none" xmlns="http://www.w3.org/2000/svg">
    <path d="M0.511602 11.9489C0.511039 13.9811 1.04204 15.9654 2.05173 17.7144L0.415039 23.6902L6.53054 22.0867C8.22201 23.0075 10.1172 23.49 12.043 23.4901H12.0481C18.4058 23.4901 23.581 18.3167 23.5838 11.958C23.585 8.87667 22.3861 5.97924 20.2079 3.79936C18.0301 1.61967 15.1337 0.418643 12.0476 0.417236C5.68923 0.417236 0.514227 5.59036 0.511602 11.9489Z" fill="url(#paint0_linear_5159_484)" />
    <path d="M9.06383 6.94937C8.84014 6.45221 8.60473 6.44218 8.39202 6.43346C8.21783 6.42596 8.0187 6.42652 7.81977 6.42652C7.62064 6.42652 7.29711 6.50143 7.02364 6.80002C6.74989 7.0989 5.97852 7.82115 5.97852 9.29012C5.97852 10.7591 7.04848 12.1788 7.19764 12.3782C7.34698 12.5773 9.26323 15.6883 12.2981 16.8851C14.8204 17.8797 15.3336 17.6819 15.881 17.632C16.4285 17.5823 17.6477 16.9099 17.8964 16.2127C18.1453 15.5156 18.1453 14.918 18.0707 14.7931C17.996 14.6687 17.7969 14.594 17.4983 14.4448C17.1997 14.2955 15.7317 13.5731 15.458 13.4734C15.1843 13.3739 14.9853 13.3242 14.7861 13.6231C14.587 13.9216 14.0152 14.594 13.841 14.7931C13.6669 14.9927 13.4926 15.0176 13.1941 14.8682C12.8953 14.7184 11.9337 14.4035 10.7929 13.3864C9.90523 12.595 9.30598 11.6176 9.1318 11.3187C8.95761 11.0202 9.11314 10.8584 9.26286 10.7096C9.39702 10.5758 9.56155 10.3609 9.71098 10.1866C9.85986 10.0123 9.90955 9.88787 10.0091 9.68874C10.1088 9.48943 10.0589 9.31505 9.98436 9.16571C9.90955 9.01637 9.32933 7.53971 9.06383 6.94937Z" fill="white" />
    <defs>
        <linearGradient id="paint0_linear_5159_484" x1="1158.85" y1="2327.71" x2="1158.85" y2="0.417236" gradientUnits="userSpaceOnUse">
            <stop stop-color="#1FAF38" />
            <stop offset="1" stop-color="#60D669" />
        </linearGradient>
    </defs>
</svg>